<?xml version="1.0" encoding="utf-8"?>
<!-- Generator: Adobe Illustrator 21.1.0, SVG Export Plug-In . SVG Version: 6.00 Build 0)  -->
<svg version="1.1" id="Layer_1" xmlns="http://www.w3.org/2000/svg" xmlns:xlink="http://www.w3.org/1999/xlink" x="0px" y="0px"
	 viewBox="0 0 73.9 68.7" style="enable-background:new 0 0 73.9 68.7;" xml:space="preserve">
<style type="text/css">
	.st0{opacity:0.58;enable-background:new    ;}
	.st1{fill:#100724;stroke:#100724;stroke-width:2;stroke-miterlimit:10;}
	.st2{fill:#100724;stroke:#100724;stroke-miterlimit:10;}
</style>
<g class="st0">
	<path class="st1" d="M37,66.7c-17.8,0-32.3-14.5-32.3-32.3S19.1,2,37,2s32.3,14.5,32.3,32.3S54.8,66.7,37,66.7z M37,5.5
		C21,5.5,8.1,18.4,8.1,34.3S21,63.2,37,63.2s28.9-12.9,28.9-28.9S52.9,5.5,37,5.5z"/>
</g>
<g class="st0">
	<g>
		<path class="st2" d="M37,14.6c2,0,3.6,1.6,3.6,3.6s-1.6,3.6-3.6,3.6s-3.6-1.6-3.6-3.6S35,14.6,37,14.6 M37,12.5
			c-3.1,0-5.7,2.6-5.7,5.7s2.6,5.7,5.7,5.7s5.7-2.6,5.7-5.7S40.1,12.5,37,12.5L37,12.5z"/>
	</g>
	<g>
		<path class="st2" d="M50.3,25.7c0.8,0,1.6,0.7,1.7,1.8c0.2,1.1-0.4,2.1-1.3,2.2l-10.5,1.5v6.6l5.6,13.6c0.4,1-0.1,2.2-1.1,2.6
			c-0.2,0.1-0.5,0.2-0.8,0.2c-0.8,0-1.5-0.5-1.8-1.2L37,40.3l-5.2,12.5c-0.3,0.8-1.1,1.2-1.8,1.2c-0.3,0-0.5,0-0.8-0.2
			c-1-0.4-1.5-1.6-1.1-2.6l5.6-13.6v-6.6l-10.5-1.5c-0.9-0.1-1.5-1.1-1.3-2.2c0.1-1,0.9-1.8,1.7-1.8c0.1,0,0.1,0,0.2,0l10.1,1.4H40
			l10.1-1.4C50.2,25.7,50.2,25.7,50.3,25.7 M50.3,23.6c-0.2,0-0.3,0-0.5,0l-10,1.4h-5.8l-10-1.4c-0.2,0-0.3,0-0.5,0
			c-1.9,0-3.5,1.5-3.8,3.5c-0.3,2.2,1.1,4.3,3.1,4.5l8.7,1.2v4.4l-5.5,13.2c-0.4,1-0.4,2.1,0,3.1c0.4,1,1.2,1.8,2.2,2.2
			c0.5,0.2,1,0.3,1.5,0.3c1.7,0,3.1-1,3.8-2.5l3.3-7.9l3.3,7.9c0.6,1.5,2.1,2.5,3.8,2.5c0.5,0,1.1-0.1,1.5-0.3
			c2.1-0.9,3.1-3.2,2.2-5.3l-5.5-13.3v-4.4l8.7-1.2c1-0.1,2-0.8,2.5-1.7c0.5-0.8,0.7-1.8,0.6-2.8C53.8,25.1,52.1,23.6,50.3,23.6
			L50.3,23.6z"/>
	</g>
</g>
</svg>
